<svg width="30" height="28" viewBox="0 0 30 28" fill="none" xmlns="http://www.w3.org/2000/svg">
<g clip-path="url(#clip0)">
<path d="M12.976 4C6.10919 4 0.54248 9.37262 0.54248 16C0.54248 17.8721 0.999541 19.637 1.7917 21.2161L0.801918 26.5911C0.675996 27.2749 1.26913 27.8754 1.95444 27.7578L7.57153 26.7943C9.20757 27.5589 11.0363 28 12.976 28C19.8429 28 25.4095 22.6274 25.4095 16C25.4095 9.37262 19.8428 4 12.976 4Z" fill="#D9D9D9"/>
</g>
<rect x="12.4786" width="16.9096" height="15" rx="7.5" fill="#FF301A"/>
<path d="M18.2476 11.1582C17.603 11.1582 17.0508 10.9897 16.5908 10.6528C16.1338 10.313 15.8643 9.87646 15.7822 9.34326H17.3555C17.4082 9.51611 17.5181 9.65674 17.6851 9.76514C17.855 9.87061 18.0513 9.92334 18.2739 9.92334C18.6694 9.92334 18.9771 9.7373 19.1968 9.36523C19.4194 8.99316 19.5132 8.479 19.478 7.82275H19.4648H19.4561H19.4517C19.3433 8.13916 19.144 8.39111 18.854 8.57861C18.5669 8.76611 18.2168 8.85986 17.8037 8.85986C17.2061 8.85986 16.7051 8.66211 16.3008 8.2666C15.8994 7.87109 15.6987 7.37305 15.6987 6.77246C15.6987 6.11035 15.939 5.56689 16.4194 5.14209C16.8999 4.71436 17.5093 4.50049 18.2476 4.50049C18.6987 4.50049 19.106 4.58838 19.4692 4.76416C19.8354 4.93701 20.1357 5.18896 20.3701 5.52002C20.8037 6.09131 21.0205 6.85156 21.0205 7.80078C21.0205 8.84375 20.7744 9.66406 20.2822 10.2617C19.79 10.8594 19.1118 11.1582 18.2476 11.1582ZM18.2651 7.69971C18.5464 7.69971 18.7822 7.60742 18.9727 7.42285C19.166 7.23535 19.2627 7.00391 19.2627 6.72852C19.2627 6.4502 19.166 6.21582 18.9727 6.02539C18.7822 5.83203 18.5479 5.73535 18.2695 5.73535C17.9883 5.73535 17.7495 5.83203 17.5532 6.02539C17.3569 6.21582 17.2588 6.44873 17.2588 6.72412C17.2588 7.00244 17.3555 7.23535 17.5488 7.42285C17.7422 7.60742 17.981 7.69971 18.2651 7.69971ZM24.2681 11.1582C23.6235 11.1582 23.0713 10.9897 22.6113 10.6528C22.1543 10.313 21.8848 9.87646 21.8027 9.34326H23.376C23.4287 9.51611 23.5386 9.65674 23.7056 9.76514C23.8755 9.87061 24.0718 9.92334 24.2944 9.92334C24.6899 9.92334 24.9976 9.7373 25.2173 9.36523C25.4399 8.99316 25.5337 8.479 25.4985 7.82275H25.4854H25.4766H25.4722C25.3638 8.13916 25.1646 8.39111 24.8745 8.57861C24.5874 8.76611 24.2373 8.85986 23.8242 8.85986C23.2266 8.85986 22.7256 8.66211 22.3213 8.2666C21.9199 7.87109 21.7192 7.37305 21.7192 6.77246C21.7192 6.11035 21.9595 5.56689 22.4399 5.14209C22.9204 4.71436 23.5298 4.50049 24.2681 4.50049C24.7192 4.50049 25.1265 4.58838 25.4897 4.76416C25.856 4.93701 26.1562 5.18896 26.3906 5.52002C26.8242 6.09131 27.041 6.85156 27.041 7.80078C27.041 8.84375 26.7949 9.66406 26.3027 10.2617C25.8105 10.8594 25.1323 11.1582 24.2681 11.1582ZM24.2856 7.69971C24.5669 7.69971 24.8027 7.60742 24.9932 7.42285C25.1865 7.23535 25.2832 7.00391 25.2832 6.72852C25.2832 6.4502 25.1865 6.21582 24.9932 6.02539C24.8027 5.83203 24.5684 5.73535 24.29 5.73535C24.0088 5.73535 23.77 5.83203 23.5737 6.02539C23.3774 6.21582 23.2793 6.44873 23.2793 6.72412C23.2793 7.00244 23.376 7.23535 23.5693 7.42285C23.7627 7.60742 24.0015 7.69971 24.2856 7.69971Z" fill="white"/>
<defs>
<clipPath id="clip0">
<rect width="24.8671" height="25" fill="white" transform="translate(0.54248 3)"/>
</clipPath>
</defs>
</svg>
