<svg width="47" height="35" viewBox="0 0 47 35" fill="none" xmlns="http://www.w3.org/2000/svg">
<rect x="2" y="2" width="43" height="31" rx="8" stroke="#469BFC" stroke-width="2.2"/>
<path d="M28.4706 15.9524H25.0476V12.5294C25.0476 11.6884 24.3413 11 23.5 11C22.6587 11 21.9524 11.6884 21.9524 12.5294V15.9524H18.5294C17.6884 15.9524 17 16.6587 17 17.5C17 18.3413 17.6884 19.0476 18.5294 19.0476H21.9524V22.4706C21.9524 23.3116 22.6587 24 23.5 24C24.3413 24 25.0476 23.3116 25.0476 22.4706V19.0476H28.4706C29.3116 19.0476 30 18.3413 30 17.5C30 16.6587 29.3116 15.9524 28.4706 15.9524Z" fill="#469BFC"/>
</svg>
