<svg width="13" height="13" viewBox="0 0 13 13" fill="none" xmlns="http://www.w3.org/2000/svg">
<g clip-path="url(#clip0)">
<path fill-rule="evenodd" clip-rule="evenodd" d="M10.389 8.19758L12.2071 9.56113C13.181 10.2754 13.246 11.6389 12.4668 12.4181C11.6227 13.2622 10.2591 13.1323 9.5449 12.2233L8.18134 10.4052C7.33723 10.7948 6.49313 11.0545 5.51916 11.0545C2.46739 11.0545 0 8.58711 0 5.53537C0 2.48362 2.46739 0.0162354 5.51916 0.0162354C8.57093 0.0162354 11.0383 2.48362 11.0383 5.53539C11.0383 6.50936 10.8435 7.4184 10.389 8.19758ZM9.4349 5.52702C9.4349 7.69439 7.6779 9.45139 5.51053 9.45139C3.34315 9.45139 1.58615 7.69439 1.58615 5.52702C1.58615 3.35964 3.34315 1.60264 5.51053 1.60264C7.6779 1.60264 9.4349 3.35964 9.4349 5.52702Z" fill="#D9D9D9"/>
</g>
<defs>
<clipPath id="clip0">
<rect width="13" height="13" fill="white"/>
</clipPath>
</defs>
</svg>
